<?xml version="1.0" standalone="no"?>
<!DOCTYPE svg PUBLIC "-//W3C//DTD SVG 20010904//EN"
 "http://www.w3.org/TR/2001/REC-SVG-20010904/DTD/svg10.dtd">
<svg version="1.0" xmlns="http://www.w3.org/2000/svg"
 width="200.000000pt" height="100.000000pt" viewBox="0 0 200.000000 100.000000"
 preserveAspectRatio="xMidYMid meet">

<g transform="translate(0.000000,100.000000) scale(0.100000,-0.100000)"
fill="#000000" stroke="none">
<path d="M0 560 l0 -440 1000 0 1000 0 0 440 0 440 -1000 0 -1000 0 0 -440z
m1590 107 c0 -43 0 -43 34 -39 43 5 76 -33 76 -88 0 -59 -36 -84 -117 -81
l-33 1 0 119 c0 116 3 127 33 130 4 1 7 -18 7 -42z m-387 4 c17 -17 -3 -29
-42 -24 -52 7 -81 -21 -81 -77 0 -56 28 -82 83 -78 31 2 42 -1 42 -11 0 -21
-54 -32 -97 -20 -46 12 -68 49 -68 113 0 50 34 101 73 109 28 6 79 -1 90 -12z
m-687 -65 c8 -12 14 -45 14 -83 0 -56 -2 -63 -20 -63 -18 0 -20 7 -20 64 0 56
-3 66 -20 71 -33 10 -40 -3 -40 -71 0 -50 -3 -64 -15 -64 -11 0 -15 12 -15 51
0 60 -13 89 -40 89 -18 0 -20 -7 -20 -70 0 -63 -2 -70 -20 -70 -18 0 -20 7
-20 79 0 54 4 81 13 84 6 2 52 4 100 4 77 0 90 -3 103 -21z m184 2 c11 -12 20
-34 20 -50 0 -27 -1 -28 -55 -28 -30 0 -55 -4 -55 -8 0 -18 26 -32 62 -32 46
0 56 -29 11 -31 -75 -3 -113 26 -113 87 0 71 84 111 130 62z m273 4 c22 -20
26 -152 3 -152 -10 0 -15 18 -18 60 -5 66 -16 85 -44 76 -16 -5 -19 -15 -16
-71 3 -60 2 -65 -17 -65 -19 0 -21 6 -21 58 0 60 -11 82 -42 82 -16 0 -18 -9
-18 -70 0 -63 -2 -70 -20 -70 -18 0 -20 7 -20 79 0 54 4 81 13 84 6 3 50 5 97
4 61 0 90 -4 103 -15z m377 3 c0 -10 -10 -15 -30 -15 l-30 0 0 -70 c0 -63 -2
-70 -20 -70 -18 0 -20 7 -20 79 0 87 1 89 63 90 27 1 37 -3 37 -14z m132 -2
c14 -13 18 -31 18 -85 l0 -68 -53 0 c-60 0 -77 12 -77 52 0 32 24 48 70 48 28
0 30 2 19 21 -8 16 -18 20 -40 17 -26 -4 -46 12 -32 26 13 13 77 5 95 -11z"/>
<path d="M1597 593 c-4 -3 -7 -28 -7 -55 0 -43 2 -48 23 -48 31 0 47 18 47 55
0 17 -5 36 -12 43 -13 13 -41 16 -51 5z"/>
<path d="M622 588 c-20 -20 -14 -28 24 -28 28 0 35 3 32 18 -4 21 -39 27 -56
10z"/>
<path d="M1405 520 c-11 -17 5 -30 36 -30 22 0 29 5 29 20 0 15 -7 20 -29 20
-17 0 -33 -4 -36 -10z"/>
</g>
</svg>
